<?xml version="1.0" encoding="utf-8"?>
<!-- Generator: Adobe Illustrator 23.0.1, SVG Export Plug-In . SVG Version: 6.00 Build 0)  -->
<svg version="1.1" id="Ebene_1" xmlns="http://www.w3.org/2000/svg" xmlns:xlink="http://www.w3.org/1999/xlink" x="0px" y="0px"
	 viewBox="0 0 275 22.5" style="enable-background:new 0 0 275 22.5;" xml:space="preserve">
<style type="text/css">
	.st0{fill:#878786;}
	.st1{fill:#A9AAAE;}
	.st2{fill:#FFFFFF;}
	.st3{display:none;fill:#010202;}
</style>
<rect class="st0" width="275" height="22.5"/>
<g>
	<path class="st1" d="M42.3,5.4h5.1c0.7,0,1.3,0.1,1.8,0.3s0.9,0.5,1.2,0.8s0.5,0.7,0.7,1.1c0.1,0.4,0.2,0.9,0.2,1.3s0,0.9-0.2,1.3
		c-0.1,0.4-0.3,0.8-0.7,1.1c-0.3,0.3-0.7,0.6-1.2,0.8s-1.1,0.3-1.8,0.3h-2.6v4h-2.5C42.3,16.6,42.3,5.4,42.3,5.4z M44.8,10.7h1.9
		c0.3,0,0.5,0,0.8,0c0.2,0,0.5-0.1,0.7-0.2s0.3-0.3,0.5-0.5c0.1-0.2,0.2-0.5,0.2-0.8s0-0.6-0.2-0.8c-0.1-0.2-0.3-0.4-0.5-0.5
		c-0.2-0.1-0.4-0.2-0.7-0.2c-0.2,0-0.5,0-0.8,0h-1.9V10.7z"/>
	<path class="st1" d="M52.3,11.1c0-0.8,0.1-1.6,0.4-2.3c0.2-0.7,0.6-1.3,1.1-1.9c0.4-0.5,1-0.9,1.7-1.2s1.4-0.4,2.3-0.4
		s1.6,0.1,2.3,0.4c0.7,0.3,1.2,0.7,1.7,1.2c0.4,0.5,0.8,1.1,1.1,1.9c0.2,0.7,0.4,1.5,0.4,2.3s-0.1,1.6-0.4,2.3
		c-0.2,0.7-0.6,1.3-1.1,1.8c-0.4,0.5-1,0.9-1.7,1.2s-1.3,0.5-2.2,0.5c-0.9,0-1.6-0.1-2.3-0.4s-1.2-0.7-1.7-1.2
		c-0.4-0.5-0.8-1.1-1.1-1.8C52.4,12.6,52.3,11.9,52.3,11.1z M54.7,11.1c0,0.4,0,0.9,0.1,1.4c0.1,0.4,0.3,0.8,0.5,1.2
		c0.2,0.3,0.5,0.6,0.9,0.8s0.8,0.3,1.4,0.3s1-0.1,1.4-0.3s0.7-0.5,0.9-0.8s0.4-0.7,0.5-1.2c0.1-0.4,0.1-0.9,0.1-1.4s0-1-0.1-1.4
		s-0.3-0.9-0.5-1.2S59.4,7.9,59,7.7s-0.8-0.3-1.4-0.3s-1,0.1-1.4,0.3s-0.7,0.5-0.9,0.8s-0.4,0.8-0.5,1.2
		C54.8,10.1,54.7,10.6,54.7,11.1z"/>
	<path class="st1" d="M75.7,16.7h-2.4L71.4,9l0,0l-1.9,7.7H67L64,5.4h2.5l1.8,7.7l0,0l1.9-7.7h2.3l1.9,7.8l0,0l1.7-7.8h2.4
		L75.7,16.7z"/>
	<path class="st1" d="M79.8,5.4h8.4v2.1h-5.9v2.4h5.5v1.9h-5.5v2.7h6.1v2.1h-8.6V5.4z"/>
	<path class="st1" d="M90,5.4h6.1c0.5,0,0.9,0.1,1.3,0.2c0.4,0.1,0.7,0.4,1,0.6c0.3,0.3,0.5,0.6,0.6,1s0.2,0.8,0.2,1.2
		c0,0.6-0.1,1.2-0.4,1.7s-0.7,0.8-1.3,1.1l0,0c0.3,0.1,0.5,0.2,0.7,0.4c0.2,0.1,0.3,0.4,0.5,0.6c0.1,0.2,0.2,0.5,0.3,0.8
		c0,0.3,0.1,0.5,0.1,0.8c0,0.2,0,0.4,0,0.6s0,0.5,0,0.7s0,0.5,0.1,0.7c0,0.2,0.1,0.4,0.2,0.6h-2.5c0-0.2-0.1-0.4-0.1-0.6
		s0-0.4-0.1-0.7c0-0.2,0-0.5,0-0.7s0-0.5,0-0.7c-0.1-0.6-0.2-1-0.5-1.3S95.5,12,94.9,12h-2.5v4.4H90V5.4L90,5.4z M92.5,10.5h2.7
		c0.5,0,1-0.1,1.2-0.4c0.3-0.2,0.4-0.6,0.4-1.2c0-0.5-0.1-0.9-0.4-1.2c-0.3-0.2-0.7-0.3-1.2-0.3h-2.7V10.5z"/>
	<path class="st1" d="M101.3,5.4h8.4v2.1h-5.9v2.4h5.5v1.9h-5.5v2.7h6.1v2.1h-8.6V5.4z"/>
	<path class="st1" d="M111.5,5.4h4.9c0.7,0,1.4,0.1,2,0.3s1.1,0.6,1.6,1c0.4,0.4,0.8,1,1.1,1.7c0.2,0.7,0.4,1.5,0.4,2.4
		c0,0.8-0.1,1.6-0.3,2.3c-0.2,0.7-0.5,1.3-0.9,1.8s-0.9,0.9-1.6,1.2c-0.6,0.3-1.4,0.4-2.2,0.4h-4.9L111.5,5.4L111.5,5.4z
		 M113.9,14.6h2.2c0.3,0,0.7,0,1-0.1s0.6-0.3,0.9-0.6c0.2-0.2,0.4-0.6,0.6-1c0.1-0.4,0.2-0.9,0.2-1.6c0-0.5,0-1.1-0.1-1.5
		s-0.3-0.8-0.5-1.2s-0.6-0.6-1-0.7c-0.4-0.1-0.9-0.2-1.5-0.2H114L113.9,14.6L113.9,14.6z"/>
	<path class="st1" d="M127.4,5.4h5.3c0.5,0,1,0,1.4,0.1s0.8,0.2,1.1,0.4s0.5,0.5,0.7,0.8c0.1,0.3,0.2,0.8,0.2,1.3s-0.1,1-0.4,1.4
		c-0.2,0.4-0.6,0.7-1.1,0.9c0.7,0.2,1.2,0.5,1.5,1s0.5,1.1,0.5,1.8c0,0.5-0.1,1-0.3,1.5c-0.2,0.4-0.5,0.7-0.9,1s-0.8,0.4-1.3,0.6
		c-0.5,0.1-0.9,0.2-1.5,0.2h-5.5v-11H127.4z M129.9,9.9h2.5c0.4,0,0.8-0.1,1.1-0.3c0.3-0.2,0.4-0.5,0.4-1c0-0.2,0-0.5-0.1-0.6
		c-0.1-0.1-0.2-0.3-0.4-0.4c-0.1-0.1-0.3-0.1-0.5-0.2c-0.2,0-0.4,0-0.6,0H130L129.9,9.9L129.9,9.9z M129.9,14.7h2.6
		c0.2,0,0.5,0,0.7,0s0.4-0.1,0.6-0.2c0.1-0.1,0.3-0.2,0.4-0.4c0.1-0.2,0.1-0.4,0.1-0.7c0-0.6-0.1-1-0.5-1.2
		c-0.3-0.2-0.7-0.3-1.3-0.3h-2.7L129.9,14.7L129.9,14.7z"/>
	<path class="st1" d="M141.4,12.3l-4.1-6.9h2.8l2.6,4.4l2.6-4.4h2.7l-4.2,6.9v4.3h-2.5L141.4,12.3L141.4,12.3z"/>
</g>
<g>
	<path class="st2" d="M158,8.8c0-0.4-0.1-0.7-0.2-1c-0.1-0.3-0.3-0.5-0.6-0.7c-0.2-0.2-0.5-0.3-0.9-0.4c-0.3-0.1-0.7-0.1-1-0.1
		s-0.6,0-0.9,0.1c-0.3,0-0.5,0.1-0.8,0.3s-0.4,0.3-0.6,0.6c-0.1,0.2-0.2,0.5-0.2,0.9c0,0.3,0,0.5,0.2,0.7c0.1,0.2,0.3,0.3,0.5,0.5
		c0.2,0.1,0.4,0.2,0.7,0.3c0.2,0.1,0.5,0.1,0.7,0.2l1.7,0.4c0.3,0,0.7,0.1,1.1,0.3c0.3,0.1,0.7,0.3,1,0.5s0.5,0.5,0.7,0.8
		s0.2,0.7,0.2,1.2c0,0.6-0.1,1.1-0.4,1.5s-0.6,0.7-1,1c-0.4,0.2-0.8,0.4-1.4,0.5c-0.5,0.1-1,0.2-1.5,0.2c-1.2,0-2.3-0.3-3-0.9
		c-0.8-0.6-1.2-1.5-1.3-2.9h1.3c0,0.9,0.4,1.5,0.9,2c0.6,0.4,1.3,0.7,2.2,0.7c0.3,0,0.6,0,1-0.1c0.3,0,0.6-0.2,0.9-0.3
		c0.3-0.1,0.5-0.4,0.7-0.6s0.3-0.5,0.3-0.9c0-0.3,0-0.5-0.2-0.8c-0.1-0.2-0.3-0.4-0.5-0.5s-0.5-0.2-0.7-0.3
		c-0.3-0.1-0.5-0.2-0.8-0.2l-1.7-0.3c-0.4-0.1-0.8-0.2-1.2-0.4c-0.3-0.1-0.7-0.3-0.9-0.5s-0.5-0.5-0.6-0.8s-0.2-0.7-0.2-1.1
		c0-0.5,0.1-1,0.3-1.4s0.5-0.7,0.9-0.9s0.8-0.4,1.3-0.5s0.9-0.1,1.4-0.1s1,0,1.5,0.2c0.4,0.1,0.8,0.3,1.2,0.6
		c0.3,0.3,0.6,0.6,0.8,1.1c0.2,0.4,0.3,0.9,0.3,1.5L158,8.8L158,8.8z"/>
	<path class="st2" d="M162,5.6h1.2v2l0,0c0.3-0.7,0.8-1.3,1.5-1.7s1.4-0.6,2.3-0.6c0.8,0,1.5,0.1,2.1,0.4c0.6,0.3,1.1,0.7,1.5,1.2
		s0.7,1.1,0.9,1.8c0.2,0.7,0.3,1.4,0.3,2.1s-0.1,1.5-0.3,2.1c-0.2,0.7-0.5,1.3-0.9,1.8s-0.9,0.9-1.5,1.2s-1.3,0.4-2.1,0.4
		c-0.4,0-0.8,0-1.1-0.1c-0.4-0.1-0.7-0.2-1-0.4c-0.3-0.2-0.6-0.4-0.9-0.7s-0.4-0.6-0.6-1l0,0v6H162V5.6L162,5.6z M170.5,11
		c0-0.5,0-1.1-0.2-1.6c-0.1-0.5-0.3-1-0.6-1.4c-0.3-0.4-0.6-0.8-1.1-1c-0.4-0.2-1-0.4-1.6-0.4c-0.7,0-1.3,0.1-1.8,0.3
		s-0.8,0.6-1.1,1c-0.3,0.4-0.5,0.9-0.6,1.4c-0.1,0.5-0.2,1.1-0.2,1.7c0,0.5,0,1.1,0.2,1.6s0.3,1,0.6,1.4s0.7,0.8,1.1,1
		c0.5,0.2,1,0.4,1.7,0.4c0.6,0,1.1-0.1,1.6-0.4c0.4-0.2,0.8-0.6,1.1-1s0.5-0.9,0.6-1.4C170.5,12.1,170.5,11.5,170.5,11z"/>
	<path class="st2" d="M178.8,5.3c0.8,0,1.5,0.1,2.1,0.4c0.6,0.3,1.1,0.7,1.6,1.2c0.4,0.5,0.7,1.1,1,1.8c0.2,0.7,0.3,1.4,0.3,2.2
		s-0.1,1.5-0.3,2.2s-0.5,1.3-1,1.8s-0.9,0.9-1.6,1.2c-0.6,0.3-1.3,0.4-2.1,0.4s-1.5-0.1-2.1-0.4s-1.1-0.7-1.6-1.2
		c-0.4-0.5-0.7-1.1-1-1.8c-0.2-0.7-0.3-1.4-0.3-2.2c0-0.7,0.1-1.5,0.3-2.2s0.5-1.3,1-1.8c0.4-0.5,0.9-0.9,1.6-1.2
		C177.3,5.5,178,5.3,178.8,5.3z M178.8,6.4c-0.6,0-1.1,0.1-1.6,0.4c-0.4,0.2-0.8,0.6-1.2,1c-0.3,0.4-0.5,0.9-0.7,1.4
		c-0.1,0.5-0.2,1.1-0.2,1.6s0.1,1.1,0.2,1.6c0.1,0.5,0.4,1,0.7,1.4s0.7,0.8,1.2,1c0.4,0.2,1,0.4,1.6,0.4s1.1-0.1,1.6-0.4
		c0.4-0.2,0.8-0.6,1.2-1c0.3-0.4,0.5-0.9,0.7-1.4c0.1-0.5,0.2-1.1,0.2-1.6s-0.1-1.1-0.2-1.6c-0.1-0.5-0.4-1-0.7-1.4
		c-0.3-0.4-0.7-0.8-1.2-1C180,6.5,179.4,6.4,178.8,6.4z"/>
	<path class="st2" d="M186.3,5.6h1.2v2.5l0,0c0.3-0.8,0.8-1.5,1.5-2s1.5-0.7,2.5-0.6v1.3c-0.6,0-1.1,0-1.6,0.2
		c-0.4,0.2-0.9,0.4-1.2,0.8c-0.3,0.4-0.6,0.7-0.8,1.2c-0.2,0.5-0.3,1-0.3,1.5v5.7h-1.3L186.3,5.6L186.3,5.6z"/>
	<path class="st2" d="M195.3,5.6h2.2v1.1h-2.2v7.2c0,0.4,0,0.7,0.2,1c0.1,0.2,0.4,0.4,0.9,0.4c0.3,0,0.7,0,1.1,0v1.1
		c-0.2,0-0.4,0-0.6,0c-0.2,0-0.4,0-0.6,0c-0.8,0-1.5-0.1-1.8-0.5s-0.5-1-0.5-1.9V6.7h-1.8V5.6h1.8V2.4h1.3L195.3,5.6L195.3,5.6z"/>
</g>
<g>
	<path class="st2" d="M210.3,15.5c0,0.3,0,0.6,0,0.9s-0.1,0.7-0.3,1c-0.1,0.3-0.3,0.7-0.6,1c-0.2,0.3-0.6,0.6-1,0.8
		c-0.4,0.2-0.9,0.4-1.5,0.6c-0.6,0.1-1.3,0.2-2.1,0.2c-0.5,0-1,0-1.6-0.2c-0.5-0.1-1-0.3-1.5-0.6c-0.4-0.3-0.8-0.6-1.1-1
		c-0.2-0.4-0.4-0.9-0.5-1.5h2.9c0.1,0.5,0.4,0.9,0.8,1.1c0.4,0.2,0.8,0.3,1.4,0.3c0.8,0,1.4-0.2,1.8-0.7c0.4-0.5,0.5-1.1,0.5-1.9
		v-1.4l0,0c-0.3,0.5-0.7,1-1.3,1.2s-1.2,0.4-1.8,0.4c-0.8,0-1.5-0.1-2.1-0.4s-1-0.6-1.4-1.1c-0.3-0.5-0.6-1-0.8-1.7
		c-0.1-0.7-0.2-1.3-0.2-2.1c0-0.7,0.1-1.3,0.3-2c0.2-0.6,0.5-1.2,0.9-1.7s0.8-0.9,1.4-1.2c0.6-0.3,1.2-0.4,2-0.4
		c0.7,0,1.3,0.1,1.8,0.4c0.5,0.2,1,0.7,1.3,1.3l0,0V5.5h2.8L210.3,15.5L210.3,15.5z M205,13.7c0.4,0,0.8-0.1,1.1-0.2
		s0.6-0.4,0.8-0.6c0.2-0.3,0.3-0.6,0.4-0.9c0.1-0.3,0.1-0.7,0.1-1.1s0-0.8-0.1-1.2c-0.1-0.4-0.2-0.7-0.4-1c-0.2-0.3-0.4-0.5-0.8-0.7
		c-0.3-0.2-0.7-0.2-1.2-0.2c-0.4,0-0.7,0.1-1,0.2c-0.3,0.1-0.5,0.4-0.7,0.7c-0.2,0.3-0.3,0.6-0.4,1c-0.1,0.3-0.1,0.7-0.1,1.1
		s0,0.7,0.1,1.1s0.2,0.7,0.4,1s0.4,0.5,0.7,0.7C204.2,13.6,204.6,13.7,205,13.7z"/>
	<path class="st2" d="M213.1,5.5h2.8v2l0,0c0.1-0.3,0.3-0.6,0.5-0.9c0.2-0.3,0.5-0.5,0.8-0.7s0.6-0.3,1-0.4s0.7-0.1,1-0.1
		c0.2,0,0.4,0,0.6,0.1v2.7c-0.1,0-0.3,0-0.5,0s-0.4,0-0.5,0c-0.5,0-1,0.1-1.3,0.2c-0.3,0.2-0.7,0.4-0.9,0.7
		c-0.2,0.3-0.4,0.7-0.5,1.1S216,11,216,11.5v4.8h-2.9L213.1,5.5L213.1,5.5z"/>
	<path class="st2" d="M220.9,10.9c0-0.8,0.1-1.6,0.4-2.3c0.2-0.7,0.6-1.3,1.1-1.8s1-0.8,1.7-1.1c0.7-0.2,1.4-0.4,2.3-0.4
		s1.6,0.1,2.3,0.4c0.7,0.2,1.2,0.6,1.7,1.1s0.8,1.1,1.1,1.8c0.2,0.7,0.4,1.5,0.4,2.3s-0.1,1.6-0.4,2.3s-0.6,1.3-1.1,1.8
		c-0.4,0.5-1,0.8-1.7,1.1c-0.7,0.3-1.4,0.4-2.3,0.4s-1.6-0.1-2.3-0.4s-1.2-0.6-1.7-1.1s-0.8-1.1-1.1-1.8
		C221.1,12.5,220.9,11.7,220.9,10.9z M223.9,10.9c0,0.4,0,0.8,0.1,1.2c0.1,0.4,0.2,0.8,0.4,1.1s0.4,0.6,0.8,0.8s0.7,0.3,1.2,0.3
		s0.9-0.1,1.2-0.3s0.6-0.4,0.8-0.8s0.3-0.7,0.4-1.1c0.1-0.4,0.1-0.8,0.1-1.2c0-0.4,0-0.8-0.1-1.2c-0.1-0.4-0.2-0.8-0.4-1.1
		S228,8,227.6,7.8c-0.3-0.2-0.7-0.3-1.2-0.3s-0.9,0.1-1.2,0.3c-0.3,0.2-0.6,0.4-0.8,0.8c-0.2,0.3-0.3,0.7-0.4,1.1
		S223.9,10.4,223.9,10.9z"/>
	<path class="st2" d="M244.4,16.2h-2.8v-1.5l0,0c-0.3,0.6-0.8,1-1.4,1.3c-0.6,0.3-1.2,0.4-1.8,0.4c-0.8,0-1.4-0.1-1.9-0.3
		c-0.5-0.2-0.9-0.5-1.2-0.9s-0.5-0.8-0.6-1.4c-0.1-0.5-0.2-1.1-0.2-1.8V5.4h2.9v6c0,0.9,0.1,1.5,0.4,2c0.3,0.4,0.7,0.6,1.4,0.6
		c0.8,0,1.4-0.2,1.7-0.7c0.3-0.4,0.5-1.2,0.5-2.3V5.4h2.9L244.4,16.2L244.4,16.2z"/>
	<path class="st2" d="M247.1,5.5h2.8v1.3l0,0c0.3-0.6,0.8-1,1.3-1.2s1.1-0.4,1.8-0.4c0.8,0,1.5,0.1,2.2,0.5c0.6,0.3,1.1,0.7,1.5,1.2
		s0.7,1.1,0.9,1.8c0.2,0.7,0.3,1.4,0.3,2.2c0,0.7-0.1,1.4-0.3,2.1c-0.2,0.6-0.5,1.2-0.9,1.7s-0.9,0.9-1.5,1.2
		c-0.6,0.3-1.3,0.4-2,0.4c-0.6,0-1.2-0.1-1.8-0.4c-0.5-0.3-1-0.7-1.4-1.2l0,0v5.1h-2.9L247.1,5.5L247.1,5.5z M252.5,14.3
		c0.5,0,0.9-0.1,1.2-0.3c0.3-0.2,0.6-0.4,0.8-0.7s0.3-0.6,0.4-1.1c0.1-0.4,0.1-0.8,0.1-1.3s0-0.8-0.1-1.2c-0.1-0.4-0.2-0.8-0.4-1.1
		S254,8,253.7,7.8c-0.3-0.2-0.7-0.3-1.2-0.3s-0.9,0.1-1.2,0.3c-0.3,0.2-0.6,0.4-0.8,0.8c-0.2,0.3-0.3,0.7-0.4,1.1
		c-0.1,0.4-0.1,0.8-0.1,1.3s0,0.8,0.1,1.3c0.1,0.4,0.2,0.7,0.4,1.1c0.2,0.3,0.4,0.5,0.8,0.7C251.6,14.2,252,14.3,252.5,14.3z"/>
</g>
<rect x="16.9" y="2" class="st2" width="17.9" height="18.5"/>
<g>
	<rect x="24.3" y="6" class="st0" width="2.9" height="9.9"/>
	<rect x="20.9" y="9.5" class="st0" width="9.9" height="2.9"/>
</g>
<rect x="258" y="-7.1" class="st3" width="17" height="36"/>
<rect y="-7.1" class="st3" width="17" height="36"/>
</svg>
