<?xml version="1.0" encoding="utf-8"?>
<!-- Generator: Adobe Illustrator 23.0.1, SVG Export Plug-In . SVG Version: 6.00 Build 0)  -->
<svg version="1.1" id="Ebene_1" xmlns="http://www.w3.org/2000/svg" xmlns:xlink="http://www.w3.org/1999/xlink" x="0px" y="0px"
	 viewBox="0 0 747.1 213.1" style="enable-background:new 0 0 747.1 213.1;" xml:space="preserve">
<style type="text/css">
	.st0{fill:#878786;}
</style>
<g>
	<path class="st0" d="M0,213.1h42v-99.2c0-18.7,3.1-29.3,16.8-29.3c9.1,0,16.4,7.7,16.4,16.7c0,9.7-7.1,16.7-16.4,16.7
		c-2.4,0-5.1-0.7-8.4-2v43.6c3.3,0.2,6.4,0.4,9.1,0.4c32.6,0,58.5-25.5,58.5-58.7c0-15.8-6-30.4-16.8-41.3
		C89.9,48.6,75,42.6,59.3,42.6c-27.2,0-48.5,15.9-56.2,43.2C0.2,95.6,0,105.3,0,115V213.1L0,213.1z"/>
	<polygon class="st0" points="300.6,0.5 258.6,0.5 258.6,158.4 300.6,158.4 	"/>
	<path class="st0" d="M377.2,45.5v53.3c0,9.8-1.3,15.4-8.2,15.4c-7.1,0-8.2-5.6-8.2-15.4V45.5h-43.3v68.1
		c0,29.6,14.4,44.8,36.9,44.8c8.7,0,16-3.1,22.9-9.6c-1.3,16.7-12.9,26.8-30.2,26.8c-4.4,0-8.2-0.9-12.4-3.2v38.1
		c5.6,1.8,10.9,2.6,16.7,2.6c38.1,0,68-26.8,68-67.4V45.5H377.2L377.2,45.5z"/>
	<path class="st0" d="M498.4,93.4V45.6h-18.6V3.4h-43.3v97.2c0,37.2,23.8,60.8,56,60.8c2,0,4,0,6-0.2v-45.5h-2.7
		c-10.6,0-16.2-6.1-16.2-18.4c0-1.1,0-2.6,0.2-3.9L498.4,93.4L498.4,93.4z"/>
	<path class="st0" d="M627.6,158.4v-44.9c0-12-0.7-24.2-6.8-38.1c-9.3-20.4-29-32.8-52.5-32.8c-15.8,0-30.2,6-41.4,17.3
		c-10.7,10.9-16.6,25.5-16.6,41c0,33,25.4,58.6,57.8,58.6c2.7,0,5.8-0.2,9.1-0.4v-43.9c-3.3,1.3-6,2-8.4,2
		c-9.3,0-16.4-6.9-16.4-16.4c0-8.8,7.3-16.4,16.4-16.4c13.8,0,16.9,10.4,16.9,28.7v45.2L627.6,158.4L627.6,158.4z"/>
	<path class="st0" d="M645.4,111.3v47.2h42V105c0-9.8,1.3-15.3,8.2-15.3c7.1,0,8.2,5.5,8.2,15.3v53.4h43.3v-47.2
		c0-17.1-0.4-32.4-10.2-47c-9.1-13.7-24-21.7-40.9-21.7c-23.9,0-41.6,14.4-48,39.6C645.4,92.4,645.4,101.9,645.4,111.3"/>
	<path class="st0" d="M171.1,102.1c0-8.6,6.8-15.4,15.1-15.4c8.3,0,15.4,7,15.4,15.4s-7,15.1-15.4,15.1
		C177.9,117.2,171.1,110.4,171.1,102.1 M127,102.1c0,15.8,6.2,30.4,17.5,41.7c11.3,11.3,25.9,17.5,41.7,17.5
		c15.6,0,30.6-6.2,41.9-17.5c11.3-11.3,17.5-25.9,17.5-41.7c0-15.6-6.2-30.4-17.5-41.7c-11.5-11.5-26.6-17.7-41.9-17.7
		c-19.8,0-38,9.8-49.3,26.8C130.3,79.4,127,90.7,127,102.1"/>
</g>
</svg>
