<svg xmlns="http://www.w3.org/2000/svg" viewBox="0 0 747.1 212.6"><title>logo-polytan-web</title><path d="M0,213.1H42V113.9c0-18.7,3.1-29.3,16.8-29.3a16.67,16.67,0,0,1,16.4,16.7c0,9.7-7.1,16.7-16.4,16.7a23.49,23.49,0,0,1-8.4-2v43.6c3.3.2,6.4.4,9.1.4,32.6,0,58.5-25.5,58.5-58.7A58.38,58.38,0,0,0,59.3,42.6c-27.2,0-48.5,15.9-56.2,43.2C.2,95.6,0,105.3,0,115v98.1Z" transform="translate(0 -0.5)" style="fill:#878786"/><polygon points="300.6 0 258.6 0 258.6 157.9 300.6 157.9 300.6 0" style="fill:#878786"/><path d="M377.2,45.5V98.8c0,9.8-1.3,15.4-8.2,15.4-7.1,0-8.2-5.6-8.2-15.4V45.5H317.5v68.1c0,29.6,14.4,44.8,36.9,44.8,8.7,0,16-3.1,22.9-9.6-1.3,16.7-12.9,26.8-30.2,26.8a24.42,24.42,0,0,1-12.4-3.2v38.1a53,53,0,0,0,16.7,2.6c38.1,0,68-26.8,68-67.4V45.5Z" transform="translate(0 -0.5)" style="fill:#878786"/><path d="M498.4,93.4V45.6H479.8V3.4H436.5v97.2c0,37.2,23.8,60.8,56,60.8,2,0,4,0,6-.2V115.7h-2.7c-10.6,0-16.2-6.1-16.2-18.4a26.82,26.82,0,0,1,.2-3.9Z" transform="translate(0 -0.5)" style="fill:#878786"/><path d="M627.6,158.4V113.5c0-12-.7-24.2-6.8-38.1-9.3-20.4-29-32.8-52.5-32.8a57.29,57.29,0,0,0-41.4,17.3,58.19,58.19,0,0,0-16.6,41c0,33,25.4,58.6,57.8,58.6,2.7,0,5.8-.2,9.1-.4V115.2a23.49,23.49,0,0,1-8.4,2,16,16,0,0,1-16.4-16.4,16.54,16.54,0,0,1,16.4-16.4c13.8,0,16.9,10.4,16.9,28.7v45.2l41.9.1Z" transform="translate(0 -0.5)" style="fill:#878786"/><path d="M645.4,111.3v47.2h42V105c0-9.8,1.3-15.3,8.2-15.3,7.1,0,8.2,5.5,8.2,15.3v53.4h43.3V111.2c0-17.1-.4-32.4-10.2-47A48.3,48.3,0,0,0,696,42.5c-23.9,0-41.6,14.4-48,39.6-2.6,10.3-2.6,19.8-2.6,29.2" transform="translate(0 -0.5)" style="fill:#878786"/><path d="M171.1,102.1a15.22,15.22,0,0,1,15.1-15.4,15.6,15.6,0,0,1,15.4,15.4,15.25,15.25,0,0,1-30.5,0m-44.1,0a59.76,59.76,0,0,0,59.2,59.2,59.14,59.14,0,0,0,41.9-17.5,58.43,58.43,0,0,0,0-83.4,59.38,59.38,0,0,0-41.9-17.7c-19.8,0-38,9.8-49.3,26.8a58.57,58.57,0,0,0-9.9,32.6" transform="translate(0 -0.5)" style="fill:#878786"/></svg>